<?xml version="1.0" encoding="UTF-8"?>
<!DOCTYPE svg PUBLIC "-//W3C//DTD SVG 1.1//EN" "http://www.w3.org/Graphics/SVG/1.1/DTD/svg11.dtd">
<!-- Creator: CorelDRAW -->
<svg xmlns="http://www.w3.org/2000/svg" xml:space="preserve" width="162.56mm" height="91.44mm" version="1.1" style="shape-rendering:geometricPrecision; text-rendering:geometricPrecision; image-rendering:optimizeQuality; fill-rule:evenodd; clip-rule:evenodd"
viewBox="0 0 16256 9144"
 xmlns:xlink="http://www.w3.org/1999/xlink"
 xmlns:xodm="http://www.corel.com/coreldraw/odm/2003">
 <defs>
  <style type="text/css">
   <![CDATA[
    .fil0 {fill:none}
    .fil1 {fill:#9248B7}
   ]]>
  </style>
 </defs>
 <g id="Camada_x0020_1">
  <metadata id="CorelCorpID_0Corel-Layer"/>
  <g id="_2246348264416">
   <rect class="fil0" x="7704.66" y="4148.66" width="846.67" height="846.67"/>
   <path class="fil1" d="M8021.82 4885.35c-70.56,-14.59 -63.9,-41.64 -96.25,-62.14 -20.46,-12.96 -42.39,-11.69 -69.32,-11.66 -18.95,0.02 -57.54,-1.28 -55.56,-22.91 12.28,-7.76 43.21,-1.97 61.53,-4.64 112.28,-16.32 117.11,46.13 160.4,41.83 3.89,-7.69 4.66,-21.39 9.72,-31.91 5,-10.35 14.28,-18.62 16.62,-25.15 -49.43,-3.63 -98.36,-20.39 -128.25,-44.93 -31.78,-26.1 -49.91,-58.93 -59.23,-113.11 -9.34,-54.24 -3.75,-102.93 23.03,-142.92 4.58,-6.83 16.19,-17.55 14.88,-24.98 -2.43,-13.72 -6.13,-20.59 -6.99,-37.19 -1.07,-20.46 3.68,-57.33 14.01,-71.65 32.81,-4.58 79.65,23.03 101.78,35.97 9.86,5.76 11.59,8.41 24.01,5.43 32.47,-7.81 60.24,-11.48 94.6,-11.55 30.33,-0.07 64,3.51 93.03,10.77 15.11,3.77 14.41,2.54 25.86,-4.45 21.38,-13.04 70.33,-41.8 103.08,-35.83 12.33,26.55 16.58,55.99 12.39,85.52 -1.51,10.66 -5.19,17.68 -6.4,27.78 47.93,55.98 56.54,136.39 24,215.9 -19.96,48.79 -63.95,81.36 -113.6,94.59 -12.89,3.43 -51.24,8.46 -58.93,12.09 19.94,29.06 26.06,35.28 26.39,82.15 0.87,122.76 -17.58,155.92 68.74,116.54 123.18,-56.19 212.63,-164.64 240.94,-302.06 52.71,-255.89 -133.26,-470.78 -348.31,-502.56 -258.46,-38.19 -466.87,151.23 -487.23,371.92 -12.89,139.75 35.24,249.89 103.2,326.43 31.75,35.75 67.99,68.05 120.78,95.66 13.51,7.06 64.1,32.39 80.49,25.03 13.77,-6.2 11.37,-25.65 11.08,-42.81 -0.29,-17.62 1.01,-38.01 -0.49,-55.16z"/>
  </g>
 </g>
</svg>
